<?xml version="1.0" encoding="UTF-8" standalone="no"?>
<svg xmlns="http://www.w3.org/2000/svg" style="display: none;">
  <symbol id="polyline" viewBox="16 16 32 32">
    <g>
      <path
         d="m 18,36 0,6 6,0 0,-6 -6,0 z m 4,4 -2,0 0,-2 2,0 0,2 z"
       />
      <path
         d="m 36,18 0,6 6,0 0,-6 -6,0 z m 4,4 -2,0 0,-2 2,0 0,2 z"
      />
      <path
         d="m 23.142,39.145 -2.285,-2.29 16,-15.998 2.285,2.285 z"
      />
    </g>
  </symbol>
  <symbol id="polygon" viewBox="76 18 24 24">
    <path
       d="M 100,24.565 97.904,39.395 83.07,42 76,28.773 86.463,18 Z"
    />
  </symbol>
  <symbol id="rectangle" viewBox="140 20 20 20">
    <path
       viewBox="0 0 60 60"
       d="m 140,20 20,0 0,20 -20,0 z"
    />
  </symbol>
  <symbol id="circle" viewBox="0 0 60 60">
    <path
       d="m 221,30 c 0,6.078 -4.926,11 -11,11 -6.074,0 -11,-4.922 -11,-11 0,-6.074 4.926,-11 11,-11 6.074,0 11,4.926 11,11 z"
    />
  </symbol>
  <symbol id="marker" viewBox="0 0 60 60">
    <path
       d="m 270,19 c -4.971,0 -9,4.029 -9,9 0,4.971 5.001,12 9,14 4.001,-2 9,-9.029 9,-14 0,-4.971 -4.029,-9 -9,-9 z m 0,12.5 c -2.484,0 -4.5,-2.014 -4.5,-4.5 0,-2.484 2.016,-4.5 4.5,-4.5 2.485,0 4.5,2.016 4.5,4.5 0,2.486 -2.015,4.5 -4.5,4.5 z"
    />
  </symbol>
</svg>
